<svg width="900" height="109" viewBox="0 0 900 109" fill="none" xmlns="http://www.w3.org/2000/svg">
<path d="M0 11L10 9.8C20 8.7 40 6.3 60 4.3C80 2.3 100 0.700004 120 0.500004C140 0.300004 160 1.7 180 1.7C200 1.7 220 0.300003 240 0.300003C260 0.300003 280 1.7 300 3.7C320 5.7 340 8.3 360 8.2C380 8 400 5 420 3.7C440 2.3 460 2.7 480 6.8C500 11 520 19 540 21.5C560 24 580 21 600 19.8C620 18.7 640 19.3 660 17.7C680 16 700 12 720 8.8C740 5.7 760 3.3 780 5.8C800 8.3 820 15.7 840 20.7C860 25.7 880 28.3 890 29.7L900 31V109H890C880 109 860 109 840 109C820 109 800 109 780 109C760 109 740 109 720 109C700 109 680 109 660 109C640 109 620 109 600 109C580 109 560 109 540 109C520 109 500 109 480 109C460 109 440 109 420 109C400 109 380 109 360 109C340 109 320 109 300 109C280 109 260 109 240 109C220 109 200 109 180 109C160 109 140 109 120 109C100 109 80 109 60 109C40 109 20 109 10 109H0V11Z" fill="#585858"/>
<path d="M0 45L10 44.8C20 44.7 40 44.3 60 45.3C80 46.3 100 48.7 120 47.8C140 47 160 43 180 42.5C200 42 220 45 240 44.3C260 43.7 280 39.3 300 35.2C320 31 340 27 360 29.2C380 31.3 400 39.7 420 42C440 44.3 460 40.7 480 38.8C500 37 520 37 540 34.5C560 32 580 27 600 26.5C620 26 640 30 660 34.2C680 38.3 700 42.7 720 42.5C740 42.3 760 37.7 780 37.7C800 37.7 820 42.3 840 41.3C860 40.3 880 33.7 890 30.3L900 27V109H890C880 109 860 109 840 109C820 109 800 109 780 109C760 109 740 109 720 109C700 109 680 109 660 109C640 109 620 109 600 109C580 109 560 109 540 109C520 109 500 109 480 109C460 109 440 109 420 109C400 109 380 109 360 109C340 109 320 109 300 109C280 109 260 109 240 109C220 109 200 109 180 109C160 109 140 109 120 109C100 109 80 109 60 109C40 109 20 109 10 109H0V45Z" fill="#7F7F7F"/>
<path d="M0 62L10 59.5C20 57 40 52 60 50C80 48 100 49 120 48C140 47 160 44 180 41.8C200 39.7 220 38.3 240 41.3C260 44.3 280 51.7 300 55.2C320 58.7 340 58.3 360 55.8C380 53.3 400 48.7 420 49.5C440 50.3 460 56.7 480 55.3C500 54 520 45 540 45.2C560 45.3 580 54.7 600 58C620 61.3 640 58.7 660 56C680 53.3 700 50.7 720 47.3C740 44 760 40 780 38.7C800 37.3 820 38.7 840 41.5C860 44.3 880 48.7 890 50.8L900 53V109H890C880 109 860 109 840 109C820 109 800 109 780 109C760 109 740 109 720 109C700 109 680 109 660 109C640 109 620 109 600 109C580 109 560 109 540 109C520 109 500 109 480 109C460 109 440 109 420 109C400 109 380 109 360 109C340 109 320 109 300 109C280 109 260 109 240 109C220 109 200 109 180 109C160 109 140 109 120 109C100 109 80 109 60 109C40 109 20 109 10 109H0V62Z" fill="#A8A8A8"/>
<path d="M0 56L10 58.2C20 60.3 40 64.7 60 64.3C80 64 100 59 120 57.8C140 56.7 160 59.3 180 64.2C200 69 220 76 240 75.5C260 75 280 67 300 65C320 63 340 67 360 69.8C380 72.7 400 74.3 420 76.3C440 78.3 460 80.7 480 80.3C500 80 520 77 540 75.2C560 73.3 580 72.7 600 69.7C620 66.7 640 61.3 660 61.2C680 61 700 66 720 66.2C740 66.3 760 61.7 780 59.7C800 57.7 820 58.3 840 61.8C860 65.3 880 71.7 890 74.8L900 78V109H890C880 109 860 109 840 109C820 109 800 109 780 109C760 109 740 109 720 109C700 109 680 109 660 109C640 109 620 109 600 109C580 109 560 109 540 109C520 109 500 109 480 109C460 109 440 109 420 109C400 109 380 109 360 109C340 109 320 109 300 109C280 109 260 109 240 109C220 109 200 109 180 109C160 109 140 109 120 109C100 109 80 109 60 109C40 109 20 109 10 109H0V56Z" fill="#D3D3D3"/>
<path d="M0 80L10 82.2C20 84.3 40 88.7 60 87.7C80 86.7 100 80.3 120 81.3C140 82.3 160 90.7 180 91.3C200 92 220 85 240 80.8C260 76.7 280 75.3 300 78C320 80.7 340 87.3 360 88.7C380 90 400 86 420 86C440 86 460 90 480 90.3C500 90.7 520 87.3 540 86.8C560 86.3 580 88.7 600 89.7C620 90.7 640 90.3 660 91.8C680 93.3 700 96.7 720 97.8C740 99 760 98 780 97.2C800 96.3 820 95.7 840 95.8C860 96 880 97 890 97.5L900 98V109H890C880 109 860 109 840 109C820 109 800 109 780 109C760 109 740 109 720 109C700 109 680 109 660 109C640 109 620 109 600 109C580 109 560 109 540 109C520 109 500 109 480 109C460 109 440 109 420 109C400 109 380 109 360 109C340 109 320 109 300 109C280 109 260 109 240 109C220 109 200 109 180 109C160 109 140 109 120 109C100 109 80 109 60 109C40 109 20 109 10 109H0V80Z" fill="white"/>
</svg>
