<svg width="900" height="190" viewBox="0 0 900 190" fill="none" xmlns="http://www.w3.org/2000/svg">
<g clip-path="url(#clip0_7_2)">
<path d="M900 0H0V190H900V0Z" fill="white"/>
<path d="M0 33L21.5 31.5C43 30 86 27 128.8 34.3C171.7 41.7 214.3 59.3 257.2 59.3C300 59.3 343 41.7 385.8 41.7C428.7 41.7 471.3 59.3 514.2 67.3C557 75.3 600 73.7 642.8 69.7C685.7 65.7 728.3 59.3 771.2 51.5C814 43.7 857 34.3 878.5 29.7L900 25V191H878.5C857 191 814 191 771.2 191C728.3 191 685.7 191 642.8 191C600 191 557 191 514.2 191C471.3 191 428.7 191 385.8 191C343 191 300 191 257.2 191C214.3 191 171.7 191 128.8 191C86 191 43 191 21.5 191H0V33Z" fill="#D4D4D4"/>
<path d="M0 94L21.5 90.7C43 87.3 86 80.7 128.8 75.8C171.7 71 214.3 68 257.2 69.2C300 70.3 343 75.7 385.8 74.8C428.7 74 471.3 67 514.2 63.8C557 60.7 600 61.3 642.8 69.7C685.7 78 728.3 94 771.2 98.3C814 102.7 857 95.3 878.5 91.7L900 88V191H878.5C857 191 814 191 771.2 191C728.3 191 685.7 191 642.8 191C600 191 557 191 514.2 191C471.3 191 428.7 191 385.8 191C343 191 300 191 257.2 191C214.3 191 171.7 191 128.8 191C86 191 43 191 21.5 191H0V94Z" fill="#A5A6A8"/>
<path d="M0 114L21.5 112.5C43 111 86 108 128.8 109.5C171.7 111 214.3 117 257.2 119.8C300 122.7 343 122.3 385.8 120.2C428.7 118 471.3 114 514.2 108.5C557 103 600 96 642.8 95.8C685.7 95.7 728.3 102.3 771.2 102.7C814 103 857 97 878.5 94L900 91V191H878.5C857 191 814 191 771.2 191C728.3 191 685.7 191 642.8 191C600 191 557 191 514.2 191C471.3 191 428.7 191 385.8 191C343 191 300 191 257.2 191C214.3 191 171.7 191 128.8 191C86 191 43 191 21.5 191H0V114Z" fill="#787B7E"/>
<path d="M0 138L21.5 133.5C43 129 86 120 128.8 119.7C171.7 119.3 214.3 127.7 257.2 133.2C300 138.7 343 141.3 385.8 140.5C428.7 139.7 471.3 135.3 514.2 136.2C557 137 600 143 642.8 140.3C685.7 137.7 728.3 126.3 771.2 120.3C814 114.3 857 113.7 878.5 113.3L900 113V191H878.5C857 191 814 191 771.2 191C728.3 191 685.7 191 642.8 191C600 191 557 191 514.2 191C471.3 191 428.7 191 385.8 191C343 191 300 191 257.2 191C214.3 191 171.7 191 128.8 191C86 191 43 191 21.5 191H0V138Z" fill="#4E5257"/>
<path d="M0 148L21.5 148.7C43 149.3 86 150.7 128.8 152.3C171.7 154 214.3 156 257.2 154.2C300 152.3 343 146.7 385.8 144.8C428.7 143 471.3 145 514.2 149.7C557 154.3 600 161.7 642.8 164.3C685.7 167 728.3 165 771.2 162C814 159 857 155 878.5 153L900 151V191H878.5C857 191 814 191 771.2 191C728.3 191 685.7 191 642.8 191C600 191 557 191 514.2 191C471.3 191 428.7 191 385.8 191C343 191 300 191 257.2 191C214.3 191 171.7 191 128.8 191C86 191 43 191 21.5 191H0V148Z" fill="#282D32"/>
</g>
<defs>
<clipPath id="clip0_7_2">
<rect width="900" height="190" fill="white"/>
</clipPath>
</defs>
</svg>
