<svg width="112" height="111" viewBox="0 0 112 111" fill="none" xmlns="http://www.w3.org/2000/svg">
<g filter="url(#filter0_d_3_5)">
<circle cx="54.5" cy="54.5" r="45.5" fill="black" fill-opacity="0.25" shape-rendering="crispEdges"/>
</g>
<g filter="url(#filter1_f_3_5)">
<path d="M38.9961 47.3906C38.9961 45.1641 40.0039 43.1133 42.0195 41.2383C42.207 41.0508 42.3008 40.8516 42.3008 40.6406C42.3008 40.4062 42.2188 40.1719 42.0547 39.9375C41.9141 39.6797 41.6211 39.5508 41.1758 39.5508H33.5117C32.4805 39.5508 31.6836 39.8672 31.1211 40.5C30.1836 41.5547 29.7148 42.6328 29.7148 43.7344V45.7383C29.7148 47.5664 28.8594 48.832 27.1484 49.5352C26.6328 49.7461 26.082 49.8516 25.4961 49.8516C24.9336 49.8516 24.3945 49.7461 23.8789 49.5352C23.3867 49.3242 22.9648 49.0312 22.6133 48.6562C21.793 47.8594 21.3828 46.8867 21.3828 45.7383V43.6289C21.3828 40.7695 22.4023 38.3203 24.4414 36.2812C26.4805 34.2422 28.9297 33.2227 31.7891 33.2227H51.1602C52.0508 33.2227 52.7891 33.5391 53.375 34.1719C53.9844 34.7812 54.2891 35.4141 54.2891 36.0703C54.2891 36.7266 54.207 37.2539 54.043 37.6523C53.8789 38.0273 53.6562 38.3555 53.375 38.6367C52.7656 39.2461 52.1094 39.5508 51.4062 39.5508C50.7031 39.5508 50.1172 39.668 49.6484 39.9023C49.1797 40.1133 48.7695 40.4062 48.418 40.7812C47.668 41.5781 47.293 42.5508 47.293 43.6992V70.5938C47.293 73.4766 46.2852 75.9258 44.2695 77.9414C42.2305 79.9805 39.7812 81 36.9219 81H32.8438C31.9531 81 31.2031 80.6953 30.5938 80.0859C29.9844 79.4766 29.6797 78.7383 29.6797 77.8711C29.6797 76.9805 29.9844 76.2188 30.5938 75.5859C31.2031 74.9531 31.9531 74.6367 32.8438 74.6367H34.8477C35.9961 74.6367 36.875 74.3438 37.4844 73.7578C38.4922 72.7969 38.9961 71.7188 38.9961 70.5234V47.3906ZM64.168 73.6172C64.168 74.3203 64.5078 74.6719 65.1875 74.6719H73.9414C74.9727 74.6719 75.7578 74.3672 76.2969 73.7578C77.2578 72.7031 77.7383 71.7539 77.7383 70.9102C77.7383 70.0664 77.8438 69.3984 78.0547 68.9062C78.2656 68.4141 78.5586 67.9805 78.9336 67.6055C79.7773 66.8086 80.6328 66.4102 81.5 66.4102C82.3672 66.4102 83.0469 66.5156 83.5391 66.7266C84.0547 66.9375 84.5 67.2305 84.875 67.6055C85.6719 68.4023 86.0703 69.457 86.0703 70.7695C86.0703 72.082 85.7891 73.3711 85.2266 74.6367C84.6875 75.9023 83.9492 77.0039 83.0117 77.9414C80.9727 79.9805 78.5234 81 75.6641 81H54.957C54.1367 81 53.5039 80.7656 53.0586 80.2969C52.2617 79.5234 51.8633 78.7031 51.8633 77.8359C51.8633 76.9453 52.1562 76.1953 52.7422 75.5859C53.3516 74.9531 54.0195 74.6367 54.7461 74.6367C55.4727 74.6367 56.082 74.543 56.5742 74.3555C57.0898 74.1445 57.5352 73.8633 57.9102 73.5117C58.707 72.7617 59.1055 71.8242 59.1055 70.6992V43.6289C59.1055 40.7461 60.1367 38.2969 62.1992 36.2812C64.2617 34.2422 66.6992 33.2227 69.5117 33.2227H74.6445C76.0273 33.2227 77 33.8672 77.5625 35.1562C77.7266 35.5547 77.8086 36.082 77.8086 36.7383C77.8086 37.3945 77.5039 38.0273 76.8945 38.6367C76.2852 39.2461 75.5352 39.5508 74.6445 39.5508H71.6211C70.4492 39.5508 69.5586 39.8438 68.9492 40.4297C67.9414 41.4609 67.4375 42.5625 67.4375 43.7344V66.8672C67.4375 68.9297 66.6406 70.7578 65.0469 72.3516C64.4609 72.8672 64.168 73.2891 64.168 73.6172Z" fill="#B14848"/>
</g>
<g filter="url(#filter2_d_3_5)">
<path d="M41.9961 45.3906C41.9961 43.1641 43.0039 41.1133 45.0195 39.2383C45.207 39.0508 45.3008 38.8516 45.3008 38.6406C45.3008 38.4062 45.2188 38.1719 45.0547 37.9375C44.9141 37.6797 44.6211 37.5508 44.1758 37.5508H36.5117C35.4805 37.5508 34.6836 37.8672 34.1211 38.5C33.1836 39.5547 32.7148 40.6328 32.7148 41.7344V43.7383C32.7148 45.5664 31.8594 46.832 30.1484 47.5352C29.6328 47.7461 29.082 47.8516 28.4961 47.8516C27.9336 47.8516 27.3945 47.7461 26.8789 47.5352C26.3867 47.3242 25.9648 47.0312 25.6133 46.6562C24.793 45.8594 24.3828 44.8867 24.3828 43.7383V41.6289C24.3828 38.7695 25.4023 36.3203 27.4414 34.2812C29.4805 32.2422 31.9297 31.2227 34.7891 31.2227H54.1602C55.0508 31.2227 55.7891 31.5391 56.375 32.1719C56.9844 32.7812 57.2891 33.4141 57.2891 34.0703C57.2891 34.7266 57.207 35.2539 57.043 35.6523C56.8789 36.0273 56.6562 36.3555 56.375 36.6367C55.7656 37.2461 55.1094 37.5508 54.4062 37.5508C53.7031 37.5508 53.1172 37.668 52.6484 37.9023C52.1797 38.1133 51.7695 38.4062 51.418 38.7812C50.668 39.5781 50.293 40.5508 50.293 41.6992V68.5938C50.293 71.4766 49.2852 73.9258 47.2695 75.9414C45.2305 77.9805 42.7812 79 39.9219 79H35.8438C34.9531 79 34.2031 78.6953 33.5938 78.0859C32.9844 77.4766 32.6797 76.7383 32.6797 75.8711C32.6797 74.9805 32.9844 74.2188 33.5938 73.5859C34.2031 72.9531 34.9531 72.6367 35.8438 72.6367H37.8477C38.9961 72.6367 39.875 72.3438 40.4844 71.7578C41.4922 70.7969 41.9961 69.7188 41.9961 68.5234V45.3906ZM67.168 71.6172C67.168 72.3203 67.5078 72.6719 68.1875 72.6719H76.9414C77.9727 72.6719 78.7578 72.3672 79.2969 71.7578C80.2578 70.7031 80.7383 69.7539 80.7383 68.9102C80.7383 68.0664 80.8438 67.3984 81.0547 66.9062C81.2656 66.4141 81.5586 65.9805 81.9336 65.6055C82.7773 64.8086 83.6328 64.4102 84.5 64.4102C85.3672 64.4102 86.0469 64.5156 86.5391 64.7266C87.0547 64.9375 87.5 65.2305 87.875 65.6055C88.6719 66.4023 89.0703 67.457 89.0703 68.7695C89.0703 70.082 88.7891 71.3711 88.2266 72.6367C87.6875 73.9023 86.9492 75.0039 86.0117 75.9414C83.9727 77.9805 81.5234 79 78.6641 79H57.957C57.1367 79 56.5039 78.7656 56.0586 78.2969C55.2617 77.5234 54.8633 76.7031 54.8633 75.8359C54.8633 74.9453 55.1562 74.1953 55.7422 73.5859C56.3516 72.9531 57.0195 72.6367 57.7461 72.6367C58.4727 72.6367 59.082 72.543 59.5742 72.3555C60.0898 72.1445 60.5352 71.8633 60.9102 71.5117C61.707 70.7617 62.1055 69.8242 62.1055 68.6992V41.6289C62.1055 38.7461 63.1367 36.2969 65.1992 34.2812C67.2617 32.2422 69.6992 31.2227 72.5117 31.2227H77.6445C79.0273 31.2227 80 31.8672 80.5625 33.1562C80.7266 33.5547 80.8086 34.082 80.8086 34.7383C80.8086 35.3945 80.5039 36.0273 79.8945 36.6367C79.2852 37.2461 78.5352 37.5508 77.6445 37.5508H74.6211C73.4492 37.5508 72.5586 37.8438 71.9492 38.4297C70.9414 39.4609 70.4375 40.5625 70.4375 41.7344V64.8672C70.4375 66.9297 69.6406 68.7578 68.0469 70.3516C67.4609 70.8672 67.168 71.2891 67.168 71.6172Z" fill="#FFDF8D"/>
</g>
<defs>
<filter id="filter0_d_3_5" x="5" y="9" width="99" height="99" filterUnits="userSpaceOnUse" color-interpolation-filters="sRGB">
<feFlood flood-opacity="0" result="BackgroundImageFix"/>
<feColorMatrix in="SourceAlpha" type="matrix" values="0 0 0 0 0 0 0 0 0 0 0 0 0 0 0 0 0 0 127 0" result="hardAlpha"/>
<feOffset dy="4"/>
<feGaussianBlur stdDeviation="2"/>
<feComposite in2="hardAlpha" operator="out"/>
<feColorMatrix type="matrix" values="0 0 0 0 0 0 0 0 0 0 0 0 0 0 0 0 0 0 0.25 0"/>
<feBlend mode="normal" in2="BackgroundImageFix" result="effect1_dropShadow_3_5"/>
<feBlend mode="normal" in="SourceGraphic" in2="effect1_dropShadow_3_5" result="shape"/>
</filter>
<filter id="filter1_f_3_5" x="17.3828" y="29.2227" width="72.6875" height="55.7773" filterUnits="userSpaceOnUse" color-interpolation-filters="sRGB">
<feFlood flood-opacity="0" result="BackgroundImageFix"/>
<feBlend mode="normal" in="SourceGraphic" in2="BackgroundImageFix" result="shape"/>
<feGaussianBlur stdDeviation="2" result="effect1_foregroundBlur_3_5"/>
</filter>
<filter id="filter2_d_3_5" x="20.3828" y="31.2227" width="72.6875" height="55.7773" filterUnits="userSpaceOnUse" color-interpolation-filters="sRGB">
<feFlood flood-opacity="0" result="BackgroundImageFix"/>
<feColorMatrix in="SourceAlpha" type="matrix" values="0 0 0 0 0 0 0 0 0 0 0 0 0 0 0 0 0 0 127 0" result="hardAlpha"/>
<feOffset dy="4"/>
<feGaussianBlur stdDeviation="2"/>
<feComposite in2="hardAlpha" operator="out"/>
<feColorMatrix type="matrix" values="0 0 0 0 0 0 0 0 0 0 0 0 0 0 0 0 0 0 0.25 0"/>
<feBlend mode="normal" in2="BackgroundImageFix" result="effect1_dropShadow_3_5"/>
<feBlend mode="normal" in="SourceGraphic" in2="effect1_dropShadow_3_5" result="shape"/>
</filter>
</defs>
</svg>
